<svg width="299" height="87" viewBox="0 0 299 87" fill="none" xmlns="http://www.w3.org/2000/svg">
<path d="M78.9999 62.8085C75.1067 62.8085 71.6028 62.1197 68.4882 60.7421C65.4335 59.3046 63.0077 57.3879 61.2109 54.9921C59.414 52.5364 58.4557 49.8111 58.3359 46.8163H68.9374C69.1171 48.9127 70.1054 50.6796 71.9023 52.1171C73.759 53.4947 76.065 54.1835 78.8202 54.1835C81.6952 54.1835 83.9114 53.6444 85.4687 52.5663C87.0859 51.4283 87.8944 49.9908 87.8944 48.2538C87.8944 46.397 86.996 45.0194 85.1991 44.121C83.4622 43.2226 80.677 42.2343 76.8437 41.1562C73.1301 40.1379 70.1054 39.1497 67.7695 38.1913C65.4335 37.233 63.3971 35.7655 61.6601 33.789C59.983 31.8124 59.1445 29.207 59.1445 25.9726C59.1445 23.3372 59.9231 20.9413 61.4804 18.7851C63.0377 16.5689 65.2538 14.832 68.1288 13.5741C71.0637 12.3163 74.4179 11.6874 78.1913 11.6874C83.8215 11.6874 88.3437 13.1249 91.7577 15.9999C95.2317 18.815 97.0885 22.6783 97.328 27.5898H87.0859C86.9062 25.3736 86.0077 23.6067 84.3905 22.289C82.7734 20.9713 80.5872 20.3124 77.832 20.3124C75.1366 20.3124 73.0702 20.8215 71.6327 21.8398C70.1952 22.858 69.4765 24.2057 69.4765 25.8827C69.4765 27.2004 69.9557 28.3085 70.914 29.207C71.8723 30.1054 73.0403 30.8241 74.4179 31.3632C75.7955 31.8424 77.832 32.4713 80.5273 33.2499C84.121 34.2083 87.0559 35.1965 89.3319 36.2148C91.6679 37.1731 93.6744 38.6106 95.3515 40.5273C97.0286 42.4439 97.897 44.9895 97.9569 48.164C97.9569 50.9791 97.1783 53.4947 95.621 55.7108C94.0637 57.927 91.8476 59.664 88.9726 60.9218C86.1575 62.1796 82.8333 62.8085 78.9999 62.8085Z" fill="white"/>
<path d="M126.993 62.8085C123.099 62.8085 119.595 62.1197 116.481 60.7421C113.426 59.3046 111 57.3879 109.204 54.9921C107.407 52.5364 106.448 49.8111 106.329 46.8163H116.93C117.11 48.9127 118.098 50.6796 119.895 52.1171C121.752 53.4947 124.058 54.1835 126.813 54.1835C129.688 54.1835 131.904 53.6444 133.461 52.5663C135.079 51.4283 135.887 49.9908 135.887 48.2538C135.887 46.397 134.989 45.0194 133.192 44.121C131.455 43.2226 128.67 42.2343 124.836 41.1562C121.123 40.1379 118.098 39.1497 115.762 38.1913C113.426 37.233 111.39 35.7655 109.653 33.789C107.976 31.8124 107.137 29.207 107.137 25.9726C107.137 23.3372 107.916 20.9413 109.473 18.7851C111.03 16.5689 113.247 14.832 116.122 13.5741C119.056 12.3163 122.411 11.6874 126.184 11.6874C131.814 11.6874 136.336 13.1249 139.75 15.9999C143.224 18.815 145.081 22.6783 145.321 27.5898H135.079C134.899 25.3736 134 23.6067 132.383 22.289C130.766 20.9713 128.58 20.3124 125.825 20.3124C123.129 20.3124 121.063 20.8215 119.625 21.8398C118.188 22.858 117.469 24.2057 117.469 25.8827C117.469 27.2004 117.948 28.3085 118.907 29.207C119.865 30.1054 121.033 30.8241 122.411 31.3632C123.788 31.8424 125.825 32.4713 128.52 33.2499C132.114 34.2083 135.049 35.1965 137.325 36.2148C139.661 37.1731 141.667 38.6106 143.344 40.5273C145.021 42.4439 145.89 44.9895 145.95 48.164C145.95 50.9791 145.171 53.4947 143.614 55.7108C142.056 57.927 139.84 59.664 136.965 60.9218C134.15 62.1796 130.826 62.8085 126.993 62.8085Z" fill="white"/>
<path d="M168.966 20.8515V48.2538C168.966 50.1106 169.385 51.4582 170.224 52.2968C171.122 53.0754 172.619 53.4648 174.716 53.4648H181.005V61.9999H172.919C168.307 61.9999 164.773 60.9218 162.317 58.7655C159.862 56.6093 158.634 53.1054 158.634 48.2538V20.8515H152.794V12.496H158.634V0.187439H168.966V12.496H181.005V20.8515H168.966Z" fill="white"/>
<path d="M187.031 37.0234C187.031 32.052 188.049 27.6497 190.085 23.8163C192.182 19.983 194.997 17.0182 198.531 14.9218C202.124 12.7656 206.078 11.6874 210.39 11.6874C214.283 11.6874 217.667 12.4661 220.542 14.0234C223.477 15.5208 225.813 17.4075 227.55 19.6835V12.496H237.882V61.9999H227.55V54.6327C225.813 56.9687 223.447 58.9153 220.453 60.4726C217.458 62.0299 214.044 62.8085 210.21 62.8085C205.958 62.8085 202.065 61.7304 198.531 59.5741C194.997 57.358 192.182 54.3033 190.085 50.4101C188.049 46.4569 187.031 41.9947 187.031 37.0234ZM227.55 37.203C227.55 33.789 226.831 30.8241 225.394 28.3085C224.016 25.7929 222.189 23.8762 219.913 22.5585C217.637 21.2408 215.182 20.582 212.546 20.582C209.911 20.582 207.455 21.2408 205.179 22.5585C202.903 23.8163 201.046 25.7031 199.609 28.2187C198.231 30.6744 197.542 33.6093 197.542 37.0234C197.542 40.4374 198.231 43.4322 199.609 46.0077C201.046 48.5832 202.903 50.5598 205.179 51.9374C207.515 53.2551 209.971 53.914 212.546 53.914C215.182 53.914 217.637 53.2551 219.913 51.9374C222.189 50.6197 224.016 48.703 225.394 46.1874C226.831 43.6119 227.55 40.6171 227.55 37.203Z" fill="white"/>
<path d="M271.28 11.6874C275.114 11.6874 278.498 12.4661 281.433 14.0234C284.427 15.5208 286.763 17.4075 288.44 19.6835V12.496H298.772V62.8085C298.772 67.3606 297.814 71.4035 295.897 74.9374C293.981 78.5312 291.196 81.3463 287.542 83.3827C283.948 85.4192 279.636 86.4374 274.604 86.4374C267.896 86.4374 262.326 84.8502 257.893 81.6757C253.461 78.5611 250.946 74.3085 250.347 68.9179H260.499C261.278 71.4934 262.925 73.5598 265.44 75.1171C268.016 76.7343 271.071 77.5429 274.604 77.5429C278.737 77.5429 282.061 76.2851 284.577 73.7694C287.153 71.2538 288.44 67.6002 288.44 62.8085V54.5429C286.703 56.8788 284.337 58.8554 281.343 60.4726C278.408 62.0299 275.054 62.8085 271.28 62.8085C266.968 62.8085 263.015 61.7304 259.421 59.5741C255.887 57.358 253.072 54.3033 250.976 50.4101C248.939 46.4569 247.921 41.9947 247.921 37.0234C247.921 32.052 248.939 27.6497 250.976 23.8163C253.072 19.983 255.887 17.0182 259.421 14.9218C263.015 12.7656 266.968 11.6874 271.28 11.6874ZM288.44 37.203C288.44 33.789 287.722 30.8241 286.284 28.3085C284.906 25.7929 283.08 23.8762 280.804 22.5585C278.528 21.2408 276.072 20.582 273.436 20.582C270.801 20.582 268.345 21.2408 266.069 22.5585C263.793 23.8163 261.936 25.7031 260.499 28.2187C259.121 30.6744 258.433 33.6093 258.433 37.0234C258.433 40.4374 259.121 43.4322 260.499 46.0077C261.936 48.5832 263.793 50.5598 266.069 51.9374C268.405 53.2551 270.861 53.914 273.436 53.914C276.072 53.914 278.528 53.2551 280.804 51.9374C283.08 50.6197 284.906 48.703 286.284 46.1874C287.722 43.6119 288.44 40.6171 288.44 37.203Z" fill="white"/>
<circle cx="25.4007" cy="37.5992" r="25.3713" fill="white"/>
</svg>
